<svg width="19" height="19" viewBox="0 0 19 19" fill="none" xmlns="http://www.w3.org/2000/svg">
<path d="M4.9509 2.99141C3.79222 4.14838 3.11831 5.70363 3.06649 7.34023C3.01468 8.97682 3.58886 10.5716 4.67204 11.7995C5.75521 13.0275 7.26585 13.7962 8.89612 13.9491C10.4967 14.0991 12.0943 13.6444 13.3751 12.6766L16.7063 16.0085L16.7063 16.0085C16.7891 16.0914 16.8875 16.1571 16.9957 16.2019C17.104 16.2468 17.22 16.2698 17.3371 16.2698C17.4543 16.2698 17.5703 16.2468 17.6785 16.2019C17.7868 16.1571 17.8851 16.0914 17.9679 16.0085C18.0508 15.9257 18.1165 15.8274 18.1613 15.7191C18.2062 15.6109 18.2292 15.4949 18.2292 15.3777C18.2292 15.2606 18.2062 15.1446 18.1613 15.0363C18.1165 14.9281 18.0508 14.8298 17.9679 14.7469L17.9679 14.7469L14.6362 11.416C15.6015 10.135 16.0541 8.53846 15.9032 6.93943C15.7495 5.31054 14.981 3.80139 13.7541 2.719C12.5271 1.63662 10.9339 1.06232 9.29856 1.11292C7.66321 1.16352 6.10857 1.83523 4.9509 2.99141ZM4.9509 2.99141L5.02156 3.06217L4.9509 2.99141ZM12.7889 4.25366C13.2265 4.68416 13.5745 5.19703 13.8129 5.76269C14.0512 6.32835 14.1752 6.93561 14.1777 7.54944C14.1802 8.16327 14.0612 8.77152 13.8274 9.3391C13.5937 9.90669 13.2499 10.4224 12.8158 10.8564C12.3818 11.2905 11.8661 11.6343 11.2985 11.868C10.7309 12.1018 10.1227 12.2208 9.50883 12.2183C8.895 12.2158 8.28774 12.0918 7.72208 11.8535C7.15642 11.6151 6.64355 11.2671 6.21305 10.8295C5.35274 9.95509 4.87281 8.77613 4.8778 7.54944C4.8828 6.32275 5.37231 5.14773 6.23972 4.28033C7.10712 3.41292 8.28214 2.92341 9.50883 2.91841C10.7355 2.91342 11.9145 3.39335 12.7889 4.25366Z" fill="currentColor" stroke="currentColor" stroke-width="0.2"/>
</svg>
